<svg width="11" height="15" viewBox="0 0 11 15" fill="none" xmlns="http://www.w3.org/2000/svg">
<g clip-path="url(#clip0_223_85)">
<path d="M0 15V5.04443C0 4.70221 0.0979167 4.40925 0.29375 4.16554C0.489583 3.92184 0.725 3.79999 1 3.79999H6C6.275 3.79999 6.51042 3.92184 6.70625 4.16554C6.90208 4.40925 7 4.70221 7 5.04443V15L3.5 12.2L0 15Z" fill="#0AAF0A"/>
</g>
<path d="M4 0H7C9.20914 0 11 1.79086 11 4H9C9 2.89543 8.10457 2 7 2H4V0ZM10 12.2H4H10ZM4 12.2V1V12.2ZM7 0C9.20914 0 11 1.79086 11 4V12.2H9V4C9 2.89543 8.10457 2 7 2V0Z" fill="#0AAF0A"/>
<defs>
<clipPath id="clip0_223_85">
<path d="M0 6.79998C0 5.14313 1.34315 3.79999 3 3.79999H4C5.65685 3.79999 7 5.14313 7 6.79999V15H0V6.79998Z" fill="white"/>
</clipPath>
</defs>
</svg>
